<?xml version="1.0" encoding="utf-8"?>
<!-- Generator: Adobe Illustrator 19.0.0, SVG Export Plug-In . SVG Version: 6.00 Build 0)  -->
<svg version="1.1" id="Capa_1" xmlns="http://www.w3.org/2000/svg" xmlns:xlink="http://www.w3.org/1999/xlink" x="0px" y="0px"
	 viewBox="0 0 12.5 12.5" style="enable-background:new 0 0 12.5 12.5;" xml:space="preserve">
<g id="XMLID_1_">
	<path id="XMLID_6_" d="M12.5,3.7c0-0.7-0.1-1.1-0.3-1.5c-0.2-0.4-0.4-0.8-0.7-1.1c-0.3-0.3-0.7-0.6-1.1-0.7C10,0.2,9.5,0.1,8.8,0
		C8.2,0,8,0,6.3,0C4.6,0,4.4,0,3.7,0C3,0.1,2.6,0.2,2.2,0.3C1.7,0.5,1.4,0.7,1.1,1.1C0.7,1.4,0.5,1.8,0.3,2.2C0.2,2.6,0.1,3,0,3.7
		c0,0.7,0,0.9,0,2.6C0,8,0,8.2,0,8.8c0,0.7,0.1,1.1,0.3,1.5c0.2,0.4,0.4,0.8,0.7,1.1c0.3,0.3,0.7,0.6,1.1,0.7
		c0.4,0.2,0.9,0.3,1.5,0.3c0.7,0,0.9,0,2.6,0c1.7,0,1.9,0,2.6,0c0.7,0,1.1-0.1,1.5-0.3c0.4-0.2,0.8-0.4,1.1-0.7
		c0.3-0.3,0.6-0.7,0.7-1.1c0.2-0.4,0.3-0.9,0.3-1.5c0-0.7,0-0.9,0-2.6C12.5,4.6,12.5,4.4,12.5,3.7z M11.4,8.8c0,0.6-0.1,0.9-0.2,1.2
		c-0.1,0.3-0.2,0.5-0.5,0.7c-0.2,0.2-0.4,0.4-0.7,0.5c-0.2,0.1-0.6,0.2-1.2,0.2c-0.7,0-0.9,0-2.5,0c-1.7,0-1.9,0-2.5,0
		c-0.6,0-0.9-0.1-1.2-0.2c-0.3-0.1-0.5-0.2-0.7-0.5c-0.2-0.2-0.4-0.4-0.5-0.7C1.3,9.7,1.2,9.4,1.2,8.8c0-0.7,0-0.9,0-2.5
		c0-1.7,0-1.9,0-2.5c0-0.6,0.1-0.9,0.2-1.2c0.1-0.3,0.2-0.5,0.5-0.7c0.2-0.2,0.4-0.4,0.7-0.5c0.2-0.1,0.6-0.2,1.2-0.2
		c0.7,0,0.9,0,2.5,0c1.7,0,1.9,0,2.5,0c0.6,0,0.9,0.1,1.2,0.2c0.3,0.1,0.5,0.2,0.7,0.5c0.2,0.2,0.4,0.4,0.5,0.7
		c0.1,0.2,0.2,0.6,0.2,1.2c0,0.7,0,0.9,0,2.5C11.4,7.9,11.4,8.1,11.4,8.8z"/>
	<path id="XMLID_15_" d="M6.3,3C4.5,3,3,4.5,3,6.3C3,8,4.5,9.5,6.3,9.5C8,9.5,9.5,8,9.5,6.3C9.5,4.5,8,3,6.3,3z M6.3,8.4
		c-1.2,0-2.1-0.9-2.1-2.1s0.9-2.1,2.1-2.1c1.2,0,2.1,0.9,2.1,2.1S7.4,8.4,6.3,8.4z"/>
	<circle id="XMLID_16_" cx="9.6" cy="2.9" r="0.8"/>
</g>
</svg>
