<svg xmlns="http://www.w3.org/2000/svg" viewBox="0 0 291.33 78.87"><title>Logo_bn3</title><g id="Capa_2" data-name="Capa 2"><g id="Capa_1-2" data-name="Capa 1"><g id="Capa_2-2" data-name="Capa 2"><g id="Capa_1-2-2" data-name="Capa 1-2"><path d="M2.7,68H7a3.19,3.19,0,0,1,3,1.54,5,5,0,0,1,.31,3.56A8.37,8.37,0,0,1,9,76.1a5,5,0,0,1-4.32,2.39H.46Zm2,9.31a4.23,4.23,0,0,0,1.22-.15,3.52,3.52,0,0,0,1.59-1.07,5.56,5.56,0,0,0,1-1.63,6.93,6.93,0,0,0,.34-1.1,4.66,4.66,0,0,0-.13-3,2.3,2.3,0,0,0-2.28-1.08H3.87L2.16,77.36Z"/><path d="M22.48,68h7.68l-.28,1.29H23.59l-.67,3.2h5.81l-.26,1.22H22.65l-.76,3.57h6.39L28,78.53H20.24Z"/><path d="M41.23,68h1.43l-2,9.28H46l-.26,1.25H39Z"/><path d="M71.1,68h2l1.13,8.9,4.9-8.9h2L78.89,78.53H77.61l1.32-6.21q.06-.32.24-1.07t.36-1.6l-4.89,8.88H73.22l-1.14-8.88L72,70q-.08.39-.23,1.18t-.23,1.16l-1.32,6.21H68.87Z"/><path d="M92.61,68h7.68L100,69.29H93.72l-.67,3.2h5.81l-.26,1.22H92.79L92,77.28h6.4l-.26,1.25H90.37Z"/><path d="M111.43,68h4.26a3.19,3.19,0,0,1,3,1.54A5,5,0,0,1,119,73.1a8.37,8.37,0,0,1-1.28,3,5,5,0,0,1-4.32,2.39h-4.25Zm2,9.31a4.23,4.23,0,0,0,1.22-.15,3.52,3.52,0,0,0,1.59-1.07,5.56,5.56,0,0,0,1-1.63,6.93,6.93,0,0,0,.34-1.1,4.66,4.66,0,0,0-.13-3,2.3,2.3,0,0,0-2.28-1.08h-2.53l-1.71,8.08Z"/><path d="M131.39,68h1.44l-2.24,10.53h-1.44Z"/><path d="M151.91,68l-.27,1.25h-3.55l-2,9.28h-1.45l2-9.28h-3.55l.26-1.25Z"/><path d="M162.45,68h7.68l-.28,1.29h-6.29l-.67,3.2h5.81l-.26,1.22h-5.81l-.76,3.57h6.39L168,78.53h-7.79Z"/><path d="M181.38,68h4.87a4.32,4.32,0,0,1,1.91.35,2,2,0,0,1,1,2.49,3.41,3.41,0,0,1-.72,1.55,3.85,3.85,0,0,1-1.3,1,1.58,1.58,0,0,1,.79.66,2.15,2.15,0,0,1,.06,1.33l-.25,1.41a4,4,0,0,0-.09.9.68.68,0,0,0,.32.65v.24h-1.75a1.2,1.2,0,0,1,0-.35,6.06,6.06,0,0,1,.11-.83l.29-1.76a1.23,1.23,0,0,0-.47-1.38,2.9,2.9,0,0,0-1.25-.19h-3.38l-1,4.52h-1.43Zm3.7,4.82a3.22,3.22,0,0,0,1.67-.4,2.08,2.08,0,0,0,.89-1.44q.24-1.12-.49-1.53a2.39,2.39,0,0,0-1.12-.21h-3.48l-.76,3.59Z"/><path d="M201.08,68H206a4.32,4.32,0,0,1,1.91.35,2,2,0,0,1,1,2.49,3.41,3.41,0,0,1-.72,1.55,3.85,3.85,0,0,1-1.3,1,1.58,1.58,0,0,1,.79.66,2.15,2.15,0,0,1,.06,1.33l-.25,1.41a4,4,0,0,0-.09.9.68.68,0,0,0,.32.65v.24h-1.75a1.2,1.2,0,0,1,0-.35,6.06,6.06,0,0,1,.11-.83l.29-1.76a1.23,1.23,0,0,0-.47-1.38,2.9,2.9,0,0,0-1.25-.19h-3.38l-1,4.52h-1.43Zm3.7,4.82a3.22,3.22,0,0,0,1.67-.4,2.08,2.08,0,0,0,.89-1.44q.24-1.12-.49-1.53a2.39,2.39,0,0,0-1.12-.21h-3.48l-.76,3.59Z"/><path d="M223.67,68h1.61l1.58,10.53H225.3l-.4-3.15h-4.17l-1.81,3.15h-1.46Zm1,6.21-.61-4.65-2.69,4.65Zm1.74-9.12-2.11,2.07h-1l1.51-2.07Z"/><path d="M239.51,68h1.68l3.5,8.53L246.5,68h1.36l-2.24,10.53H244L240.44,70l-1.81,8.52h-1.36Z"/><path d="M259.34,68H267l-.28,1.29h-6.29l-.67,3.2h5.81l-.26,1.22h-5.81l-.76,3.57h6.39l-.26,1.25H257.1Z"/><path d="M286.45,69.51a5.16,5.16,0,0,1,.29,3.58,7.79,7.79,0,0,1-2,3.92,5.93,5.93,0,0,1-4.4,1.84,3.83,3.83,0,0,1-3.48-1.61,5.34,5.34,0,0,1-.41-3.91,7.67,7.67,0,0,1,1.83-3.66,5.76,5.76,0,0,1,4.44-1.95Q285.49,67.72,286.45,69.51Zm-1.18,3.6a3.9,3.9,0,0,0-.33-3A2.65,2.65,0,0,0,282.52,69a4.27,4.27,0,0,0-2.91,1.12,5.89,5.89,0,0,0-1.74,3.31,4.29,4.29,0,0,0,.26,2.95,2.67,2.67,0,0,0,2.62,1.2,3.73,3.73,0,0,0,3-1.35A7,7,0,0,0,285.27,73.11Z"/><rect x="91.62" y="0.02" width="13.39" height="6.79"/><path d="M12.22,26H0V23.1a20.21,20.21,0,0,1,1.14-7.65A10.6,10.6,0,0,1,5.75,10.7a17.27,17.27,0,0,1,9-2.06q6.6,0,10,2.33a9.1,9.1,0,0,1,4,5.73q.68,3.4.68,14V52.14H16.7V48.33a8.45,8.45,0,0,1-3.07,3.44,8.49,8.49,0,0,1-4.49,1.14A11,11,0,0,1,2.87,51Q0,49.09,0,42.61V39.1q0-4.8,1.51-6.54T9,28.51q6.41-2.51,6.86-3.38a9,9,0,0,0,.45-3.54,11.94,11.94,0,0,0-.5-4.36,1.71,1.71,0,0,0-1.66-1q-1.32,0-1.64.85a17.31,17.31,0,0,0-.32,4.43Zm4.12,5.86q-3.12,2.29-3.62,3.83a15.21,15.21,0,0,0-.5,4.44,12.93,12.93,0,0,0,.44,4.28,1.7,1.7,0,0,0,1.72,1A1.59,1.59,0,0,0,16,44.65a12.22,12.22,0,0,0,.37-4Z"/><path d="M63.38,9.42V42.33a72.82,72.82,0,0,1-.31,8.61,8.6,8.6,0,0,1-2.17,4.12,11.67,11.67,0,0,1-5.2,3.32,26.23,26.23,0,0,1-8.39,1.14,20.51,20.51,0,0,1-10-2.11q-3.79-2.11-3.9-8.29H46Q46,52,48.12,52a2,2,0,0,0,2-.87,8.8,8.8,0,0,0,.48-3.64V44.27A12.36,12.36,0,0,1,47,46.51a10,10,0,0,1-3.88.77,10.75,10.75,0,0,1-5.78-1.42,7.25,7.25,0,0,1-3.11-3.72,20,20,0,0,1-.84-6.55V20.08q0-6.08,2.19-8.76t6.66-2.67a9.89,9.89,0,0,1,4.46,1,10.59,10.59,0,0,1,3.59,3l.93-3.23Zm-13,11.33A12.38,12.38,0,0,0,50,17a1.44,1.44,0,0,0-1.5-.8,1.64,1.64,0,0,0-1.59.92,9.2,9.2,0,0,0-.47,3.62V35.1a12,12,0,0,0,.35,3.72,1.43,1.43,0,0,0,1.48.85,1.6,1.6,0,0,0,1.67-1A17,17,0,0,0,50.35,34Z"/><path d="M81,9.42,80.51,15q2.83-6,8.21-6.39v15a10.9,10.9,0,0,0-5.25,1,4,4,0,0,0-2.06,2.69A48.24,48.24,0,0,0,81,35.24V52.11H68V9.42Z"/><rect x="91.62" y="9.42" width="13.39" height="42.73"/><path d="M136.6,9.42l-6.08,42.73h-17L107,9.42h11.62l3.66,31.2q.43-3.44,1.47-16.77.55-7.44,1.26-14.43Z"/><path d="M168,31.54H151.12v9.24a10.25,10.25,0,0,0,.42,3.73,1.63,1.63,0,0,0,1.61.84,2,2,0,0,0,2-1.11,12.15,12.15,0,0,0,.5-4.3V34.31H168v3.16a28.31,28.31,0,0,1-.5,6.08,12.39,12.39,0,0,1-2.33,4.54,11.36,11.36,0,0,1-4.65,3.62,18,18,0,0,1-7.07,1.21,20.52,20.52,0,0,1-7.28-1.19,11.64,11.64,0,0,1-4.91-3.27,11.81,11.81,0,0,1-2.43-4.57,29.51,29.51,0,0,1-.68-7.26V24.16a21.22,21.22,0,0,1,1.51-8.84,10.39,10.39,0,0,1,5-5,17.49,17.49,0,0,1,7.92-1.72,17.71,17.71,0,0,1,9,2.08,11.43,11.43,0,0,1,5,5.5A25.84,25.84,0,0,1,168,25.82Zm-13-7V21.42a15.73,15.73,0,0,0-.35-4.28,1.4,1.4,0,0,0-1.45-1q-1.35,0-1.67.82a17.1,17.1,0,0,0-.32,4.43v3.12Z"/><path d="M185.21,9.42,184.7,15q2.83-6,8.21-6.39v15a10.9,10.9,0,0,0-5.25,1,4,4,0,0,0-2.06,2.69,48.16,48.16,0,0,0-.39,7.94V52.15h-13V9.42Z"/><path d="M225.4,0V52.13h-13V49a13.42,13.42,0,0,1-3.93,2.9,10,10,0,0,1-4.31,1,8.76,8.76,0,0,1-5.25-1.59,7.1,7.1,0,0,1-2.85-3.69,26.23,26.23,0,0,1-.63-6.83v-20a26.9,26.9,0,0,1,.63-7,6.94,6.94,0,0,1,2.88-3.62,9.2,9.2,0,0,1,5.38-1.56,10.63,10.63,0,0,1,8.08,3.49V0Zm-13,20.16A8.15,8.15,0,0,0,212,17a2,2,0,0,0-3.16-.08,8.06,8.06,0,0,0-.4,3.24V41.1a9.66,9.66,0,0,0,.39,3.43,1.48,1.48,0,0,0,1.48.82,1.65,1.65,0,0,0,1.67-.92,14.15,14.15,0,0,0,.42-4.49Z"/><path d="M259.52,31.54H242.69v9.24a10.25,10.25,0,0,0,.42,3.73,1.63,1.63,0,0,0,1.61.84,2,2,0,0,0,2-1.11,12.15,12.15,0,0,0,.5-4.3V34.31h12.3v3.16a28.31,28.31,0,0,1-.5,6.08,12.39,12.39,0,0,1-2.33,4.54A11.36,11.36,0,0,1,252,51.71,18,18,0,0,1,245,52.92a20.52,20.52,0,0,1-7.28-1.19,11.63,11.63,0,0,1-4.91-3.27,11.79,11.79,0,0,1-2.43-4.57,29.48,29.48,0,0,1-.68-7.26V24.16a21.2,21.2,0,0,1,1.51-8.84,10.39,10.39,0,0,1,5-5A17.49,17.49,0,0,1,244.1,8.6a17.71,17.71,0,0,1,9,2.08,11.43,11.43,0,0,1,5,5.5,25.84,25.84,0,0,1,1.43,9.64Zm-13-7V21.42a15.73,15.73,0,0,0-.35-4.28,1.4,1.4,0,0,0-1.45-1q-1.35,0-1.67.82a17.1,17.1,0,0,0-.32,4.43v3.12Z"/><path d="M290.34,23.07H278.81V20.75a12.34,12.34,0,0,0-.34-3.75q-.34-.79-1.69-.79a1.93,1.93,0,0,0-1.64.72,3.58,3.58,0,0,0-.55,2.17,11,11,0,0,0,.27,2.88,4.56,4.56,0,0,0,1.64,2,35.77,35.77,0,0,0,5.62,3.19q5.67,2.77,7.44,5.22t1.77,7.12q0,5.21-1.35,7.87a9,9,0,0,1-4.52,4.09,18.5,18.5,0,0,1-7.65,1.43,21.05,21.05,0,0,1-8.48-1.54,9.26,9.26,0,0,1-4.85-4.19q-1.32-2.64-1.32-8V37.11h11.53v2.7a14.24,14.24,0,0,0,.43,4.48,1.69,1.69,0,0,0,1.72,1,2.33,2.33,0,0,0,1.93-.69,5.17,5.17,0,0,0,.55-2.91q0-3.06-.71-3.83T271,33.34q-5.73-3.22-7-5.84a14.3,14.3,0,0,1-1.26-6.23q0-5.12,1.35-7.55A8.79,8.79,0,0,1,268.7,10a19.8,19.8,0,0,1,7.52-1.32,21.33,21.33,0,0,1,7.23,1.08A11.11,11.11,0,0,1,288,12.58,7.66,7.66,0,0,1,290,15.86a23.83,23.83,0,0,1,.34,4.73Z"/></g></g></g></g></svg>