<svg xmlns="http://www.w3.org/2000/svg" viewBox="0 0 163.5 19.62"><defs><style>.cls-1{fill:#1d1d1b;}</style></defs><title>Logo2</title><g id="Capa_2" data-name="Capa 2"><g id="Capa_1-2" data-name="Capa 1"><path class="cls-1" d="M19,8.88c0,2.65-.24,4.91-1.85,7.17a8.77,8.77,0,0,1-7.49,3.56C4,19.62,0,15.74,0,10,0,4.14,4,.26,9.85.26A8.44,8.44,0,0,1,18,5.34L13.55,7.22A4.1,4.1,0,0,0,9.63,4.33c-3.1,0-4.72,3-4.72,5.73S6.6,15.74,9.7,15.74c2,0,3.61-1.06,3.8-3.15H9.65V8.88Z"/><polygon class="cls-1" points="25.66 15.02 31.32 15.02 31.32 19.02 20.95 19.02 20.95 0.87 25.66 0.87 25.66 15.02"/><path class="cls-1" d="M36.59,9.63a5.14,5.14,0,1,0,10.26,0,5.14,5.14,0,0,0-10.26,0m15.17,0a9.65,9.65,0,0,1-10,10,9.65,9.65,0,0,1-10-10c0-5.49,4.81-9.34,10-9.34s10,3.85,10,9.34"/><path class="cls-1" d="M58.67,15.41h.6c1.4,0,3.75.07,3.75-1.93,0-2.19-2.33-2-3.88-2h-.48Zm0-7.41h.53c1.25,0,2.55-.22,2.55-1.76S60.28,4.48,59,4.48h-.34ZM54,19V.87h6.74c3.23,0,5.39,1.25,5.39,4.72a3.77,3.77,0,0,1-2,3.71v0c2.6.34,3.71,2.09,3.71,4.62,0,3.8-3.25,5.06-6.57,5.06Z"/><path class="cls-1" d="M78.15,6.48h0l-1.95,5.78h3.92Zm-3.3,9.39L73.6,19h-5l7-18.15h5.15L87.56,19h-5l-1.18-3.15Z"/><polygon class="cls-1" points="93.6 15.02 99.26 15.02 99.26 19.02 88.88 19.02 88.88 0.87 93.6 0.87 93.6 15.02"/><path class="cls-1" d="M117.13,9.89c0,2.45-.22,4.48-1.88,6.4a9,9,0,0,1-6.72,3,9.39,9.39,0,1,1,7.8-14.85l-1.47,1.37a7.38,7.38,0,0,0-6.24-3.42A7.53,7.53,0,0,0,101.22,10a7.31,7.31,0,0,0,2.12,5.13,7.63,7.63,0,0,0,5.15,2.31c3.15,0,6.48-2.31,6.48-5.68h-5.39V9.89Z"/><path class="cls-1" d="M122.38,18a1.35,1.35,0,1,1-2.7,0,1.35,1.35,0,0,1,2.7,0"/><path class="cls-1" d="M133.43,4.72,130.33,12h6.14Zm-3.92,9.15L127.32,19H125.1l8.38-19,8.16,19H139.4l-2.14-5.15Z"/><path class="cls-1" d="M147.59,18a1.35,1.35,0,1,1-2.7,0,1.35,1.35,0,0,1,2.7,0"/><path class="cls-1" d="M153.56,9.2h1.35c2.24,0,4.14-.67,4.14-3.27,0-3-2.38-3.18-4.74-3.18h-.75Zm0,9.82h-2V.87h3a7.65,7.65,0,0,1,4.5,1,5,5,0,0,1,2,4.14,5.1,5.1,0,0,1-1.73,3.9,6.54,6.54,0,0,1-4.31,1.2h-1.47Z"/><path class="cls-1" d="M163.5,18a1.35,1.35,0,1,1-2.7,0,1.35,1.35,0,0,1,2.7,0"/></g></g></svg>