<?xml version="1.0" encoding="utf-8"?>
<!-- Generator: Adobe Illustrator 21.1.0, SVG Export Plug-In . SVG Version: 6.00 Build 0)  -->
<svg version="1.1" id="Capa_1" xmlns="http://www.w3.org/2000/svg" xmlns:xlink="http://www.w3.org/1999/xlink" x="0px" y="0px"
	 viewBox="0 0 756.9 408.2" style="enable-background:new 0 0 756.9 408.2;" xml:space="preserve">
<style type="text/css">
	.st0{fill:#CAC6BD;}
	.st1{fill:#A7A091;}
	.st2{fill:none;stroke:#A7A091;stroke-width:2;}
</style>
<g>
	<polygon class="st0" points="411.8,0 356.4,55.4 356.4,108.8 328.4,136.8 223.4,136.8 157.4,202.8 156,202.8 199.2,259.5 
		232.4,259.5 232.4,314.5 338.9,408.2 394.4,352.7 535.4,334.2 535.4,265.5 463.4,193.5 463.4,25.9 437.4,0 	"/>
	<path class="st1" d="M368.7,144c0-3.2,2.6-5.8,5.8-5.8c3.2,0,5.8,2.6,5.8,5.8c0,3.2-2.6,5.8-5.8,5.8
		C371.3,149.8,368.7,147.2,368.7,144"/>
	<path class="st1" d="M400.1,85.4c0-3.2,2.6-5.8,5.8-5.8c3.2,0,5.8,2.6,5.8,5.8c0,3.2-2.6,5.8-5.8,5.8
		C402.8,91.3,400.1,88.7,400.1,85.4"/>
	<path class="st1" d="M449.9,226c1.9-2.6,5.5-3.3,8.1-1.4c2.6,1.9,3.3,5.5,1.4,8.1c-1.9,2.6-5.5,3.3-8.1,1.4
		C448.7,232.3,448.1,228.7,449.9,226"/>
	<path class="st1" d="M464.4,325c1.9-2.6,5.5-3.3,8.1-1.4c2.6,1.9,3.3,5.5,1.4,8.1c-1.9,2.6-5.5,3.3-8.1,1.4
		C463.2,331.3,462.6,327.7,464.4,325"/>
	<polyline class="st2" points="373.9,144.7 148.9,369.7 24,369.7 	"/>
	<polyline class="st2" points="468.7,327.8 517,360.7 739,360.7 	"/>
	<line class="st2" x1="404" y1="85" x2="0" y2="85"/>
	<polyline class="st2" points="455.7,230 594.3,86 756.9,86 	"/>
</g>
</svg>
