<svg id="Capa_1" data-name="Capa 1" xmlns="http://www.w3.org/2000/svg" viewBox="0 0 1253.31 793.11"><defs><style>.cls-1{fill:#cac6bd;}.cls-2{opacity:0.25;}.cls-3{fill:none;}.cls-4{fill:#7cb921;}.cls-5{fill:#00824a;}.cls-6{fill:#edece9;}</style></defs><title>mapa-web</title><g id="layer1"><path class="cls-1" d="M62.63,777.09,60.11,777,58,778.46c-3.37,3.26-6.12,9.33-11.84,5.11l-2.28,1.74h0L43.76,787,48,790.1c3.46,1.3,7.72,2.66,8.3,5.93a74.91,74.91,0,0,1,9-15.46Z" transform="translate(-43.76 -4.89)"/><path class="cls-1" d="M271.15,754.72l-21.88-3.1c.54,4.12-4.66,11.59-9.26,13.38a12.15,12.15,0,0,0-.74,1.64L247,785.36l.07.05L267,785l6.53-21.31C272.19,761.34,270.44,758.78,271.15,754.72Z" transform="translate(-43.76 -4.89)"/><path class="cls-1" d="M267,785v0l0,0Z" transform="translate(-43.76 -4.89)"/><path class="cls-1" d="M125.55,761.37l0,0,.09,0Z" transform="translate(-43.76 -4.89)"/><path class="cls-1" d="M136.77,749.54,123.5,745.4l-3.59,7c0,.11,0,.21,0,.32l5.61,8.62,11.57-4-.33-7.77Z" transform="translate(-43.76 -4.89)"/><path class="cls-1" d="M137.2,757.29l-.08,0v.07Z" transform="translate(-43.76 -4.89)"/><polygon class="cls-1" points="170.96 710.97 171.15 710.66 168.97 712.33 170.96 710.97"/><path class="cls-1" d="M191.69,719.22c-1.43,2.44-2.62,4.94-5.14,4.88-2.92,3.17-11,5.24-13.76,3.41-3,3.24-7.08,2.28-11.12,2L154.53,731l16.21,33.36,12.13-3.13L192,749c1.44-4,2.24-8.9,5.13-13.23-1.45-4.49,2.68-8.13,6.33-11l4.65-4.4-1.26.86,1.26-.86,3.3-3.12-3.3,3.12,4.6-3.14,2.17-1.66,1.26-2.07-2.07-1.5Z" transform="translate(-43.76 -4.89)"/><path class="cls-1" d="M203.48,724.76c2.19-1.74,4.2-3.21,4.75-4.44.27-.24,1.27-.8,2.48-1.55l2-1.55-4.6,3.14Z" transform="translate(-43.76 -4.89)"/><path class="cls-1" d="M390.82,696.45l-6.22,1.62L380,708c-.83,4-3,7.69-5.13,11.2l-8,17.43c-.95,4.38-1.73,9-5,12.28-2.42,4.84-9.22,5.57-13.71,6.57l-1.65,2.77,8.24,2.85,6.54-3.63a6.92,6.92,0,0,0,.57-2.47c5.57-8,12.84-6.84,20.14-9.19l10.86-15,1.83-31.28Z" transform="translate(-43.76 -4.89)"/><path class="cls-1" d="M354.77,761.12l0,0h0Z" transform="translate(-43.76 -4.89)"/><path class="cls-1" d="M393,730.66l-.11.15,0,.3Z" transform="translate(-43.76 -4.89)"/><path class="cls-1" d="M88.59,701.89l-.16,4.27,0-.08" transform="translate(-43.76 -4.89)"/><path class="cls-1" d="M88.05,700.35c.23-.24.43-.48.63-.72l.38-10.05c-.79-1.58-1.76-3.14-2.6-4.69a11.28,11.28,0,0,1-10.71-1.7c-1.22,1.18-2.71,2.44-3.93,3.88l-1.53,5.32L77.79,712a46.14,46.14,0,0,1,1.9,5L81,720.48l7.4-14.32.16-4.27A4.16,4.16,0,0,0,88.05,700.35Z" transform="translate(-43.76 -4.89)"/><path class="cls-1" d="M423.6,651.4l-2,1.62c-3.15,5.86-6.3,9-12.68,8-1.92,2.22-6,3.62-9.3,5.84l-4.86,7.39a12.31,12.31,0,0,0,.4,3.94,14,14,0,0,0-2.34,3.68l5,2.74,3.93-.73c3.66-2.43,8.84-6.86,13.81-7.37l8.75-10a16.08,16.08,0,0,0-.65-6.55,10.61,10.61,0,0,0,1.38-1.05l-.13-3.87Z" transform="translate(-43.76 -4.89)"/><path class="cls-1" d="M1109.73,475.52l-1.75-1.36C1108.45,475.27,1108.82,476.72,1109.73,475.52Z" transform="translate(-43.76 -4.89)"/><path class="cls-1" d="M1108,474.16l-.91-.71-1.37,3.84,3.27,1.33.82-3-.07-.05C1108.82,476.72,1108.45,475.27,1108,474.16Z" transform="translate(-43.76 -4.89)"/><path class="cls-1" d="M1107.17,473.17l-.1.28.91.71a4.12,4.12,0,0,0-.28-.56Z" transform="translate(-43.76 -4.89)"/><path class="cls-1" d="M1109.8,475.58l.06-.21-.12.16Z" transform="translate(-43.76 -4.89)"/><polygon class="cls-1" points="1063.2 468.47 1063.32 468.56 1063.42 468.28 1063.41 468.28 1063.2 468.47"/><polygon class="cls-1" points="1060.3 477.34 1060.29 477.34 1060.3 477.34 1060.3 477.34"/><path class="cls-1" d="M1109.8,475.58l-.82,3-3.27-1.33,1.37-3.84-.12-.09-2.15,2v0l-.74,6.84,2.29-.46a9.69,9.69,0,0,0,.83-.8,51.71,51.71,0,0,1,7.49-.27l1.36-.26Z" transform="translate(-43.76 -4.89)"/><path class="cls-1" d="M1108,474.16l1.75,1.36.12-.16-2.15-1.76A4.12,4.12,0,0,1,1108,474.16Z" transform="translate(-43.76 -4.89)"/><path class="cls-1" d="M1113.6,439.86h0l-13.18,4.51-4.38,7.49a1.62,1.62,0,0,0,1.16.86c-2,.92-4.05.78-5.09,1.48l-.45,7.33,3.8,1.25,2.35-.13c1.12-.23,1.75-.33,1.15.36l5,1.31,2.56-4.64.09-.26c-.29-.64,1.32-1.36,2.88-2.15l2.44-3a21,21,0,0,1,4.06-5l2.4-2.94Z" transform="translate(-43.76 -4.89)"/><path id="path2529" class="cls-1" d="M1210.06,428.36c-2.31,2.19-2.31,3.89,1.08,2.81h0c-1.7-1.58,3.29-2.07-1.1-2.8h0" transform="translate(-43.76 -4.89)"/><path class="cls-1" d="M1216.88,359.45c6.45-4.14,5.36-6,4.26-6.21-3.1,2.94-7.17,3.08-9.12,3.09l3,4.29C1214.78,360,1215.21,359.45,1216.88,359.45Z" transform="translate(-43.76 -4.89)"/><path class="cls-1" d="M1242.34,376.35l-9.6-5.53a20,20,0,0,1-4.66,3c-6.59.23-9.16-3.54-8.92-7.34l-3.69-5.24a1.94,1.94,0,0,1-.43-.61l-3-4.29c-1,0-1.5,0-.86.32a15,15,0,0,1-3.16,2l-37.55,29.8-1.12,5.83,3.36,3c1.25-.07,2.28.12,2.07,1.55a1.61,1.61,0,0,0-.08.22l2.67,2.39,2.32-1.48a10,10,0,0,0-.16-1.13c1.7-3,5.84-3.29,7.43-6.09,6.65,1.14,6.7,5.42,7.19,10l5.63,8.1c4.68.57,10.92-1.86,12.25,2.37l6.25,3.93L1230.8,402c1.19-4.79,2.6-10.25,6.28-12.13,1.22-5,5.36-12.05,4.75-11.08C1242,377.84,1242.21,377,1242.34,376.35Z" transform="translate(-43.76 -4.89)"/><path class="cls-1" d="M1295.55,347.57h0Z" transform="translate(-43.76 -4.89)"/><path class="cls-1" d="M1295.55,347.56l-15.19-7.91a5.74,5.74,0,0,1-1.06.25l-16,4.66v.07l1.22,2.37a3.78,3.78,0,0,0,1,.15,10.71,10.71,0,0,0-.21,1.37l2.52,4.9a5.41,5.41,0,0,0,3.54-.79c7.91-3.27,16.28,5.34,21.55,7.7l4.22.43Z" transform="translate(-43.76 -4.89)"/><path class="cls-1" d="M962.16,551.22l-460.37.12-12.54,68.55c7.18-2.92,19.24-3.17,26.06.49,14.25,7.55,36.28,16.92,41.15,37.5l1.1.37-1.1-4.63,1.1,4.63c1.1.61,1.1,1.1.37,1.83l3.77,15.71a7.72,7.72,0,0,1,3.29,3c6.94-1.34-3.65,11.57,4.75,5.6,3.29,1.58-6,9.13-5.36,1.1-.24-.24-.37-.61-.61-.85l1.34,5.6,46.39,43.1h.12l11-10.71a.12.12,0,0,0-.12-.12c.49-4.26,2.31-4.38,4.26-3.9l5.48-5.36c5.36-9.13,8.77-19.24,20.46-20.58,6.33-3.29,12.42-5.24,19.36-3l22.16-15.22c2.56-4.14,5.11-7.31,11.2-4.51,10.35,2.92,16.32-6,24.84-1.1,6.09-3.53,13.39-1.1,16.19.49h.37c2.8-2.19,7.18-1.22,11-.24l17.53-.37c2.8-1.46,5.6-2.68,8.89-1.46,6.45.61,13.39.24,19.6.85l22.53-.49c3.29-5,6.7-11,12.18-7.06,6.21-4.87,14.25,2.8,18.51,8.89h.37l20.21-25.2V644c4.75-9.62,3.9-21.92,12.66-28.73,4-8.4,11.08-10.35,16.32-12.78-1.34-5.24,7.06-7.91,11.08-12.18,3.41,1.95,9.25-4.14,10.11,1.1,5.84,3.9,1.7-1.22,7.43-3.41,2.92,2.44,6.33-1.34,6.33-1.1.49.61.73,1.83,1.46,2.68l11.2-5.11.24-3a2.66,2.66,0,0,1-.61-.49c-2.56-2.07-3.29-3.9-3.17-5.72l-.37-1.22-1.46,2.68,1.46-2.68-1.7-5.48,1.7,5.48,5.24-9.38.24-4.26-.24,4.26,1.7-3.17c.24-3,.61-6.21,2.44-6.57A9.32,9.32,0,0,1,962.16,551.22Z" transform="translate(-43.76 -4.89)"/><path class="cls-1" d="M746.53,669.44l.12-.12h-.37A.43.43,0,0,1,746.53,669.44Z" transform="translate(-43.76 -4.89)"/><path class="cls-1" d="M1097.31,249.75l-6.33,2.44A45,45,0,0,0,1097.31,249.75Z" transform="translate(-43.76 -4.89)"/><path class="cls-1" d="M1054.21,288h0C1050.92,284.08,1052,285.91,1054.21,288Z" transform="translate(-43.76 -4.89)"/><path class="cls-1" d="M563.77,186.07c1,1.58,1.7,3.17-.37,5.24l-1.34,9.5a8,8,0,0,0,1.34,3.17c4.14,3.9,7.91-3.41,13.76,1.7,7.79,3.77,10,10,4.14,15.46-2.07.12-3,6.94-5.84,8.89,2.07,3.29-6.7.12-3.65,4.38-3.17,2.44-5.84,6.09-8.4,8.28-1.95,1-3.77.85-5.6,1.1L521.52,442.85c2.8,2.07,4.14,5.6,1.34,10.11-3.53,3.53-4,6.21-4.75,8.89l-10.47,57.59c1.7,3.41,3.29,6.57,4.63,9.13,2.68.12,7.06-4.87,10.59-2.8-4.38,4.14.61,5.72-3.77,9.38.24,8-4.87,9.25-8.4,5.6-2.68,3.29-3.41,4.38-7.55,3.9l-1.22,6.7H962c1.58-1.58,2.92-2.92,1.7-7.31-2.44-10.71,6.94-11.08,9.5-16.07-2.44-7.55.73-14.49,7.43-12.18-2.92-11.57,12.18-14.37,18.39-17.65l3.53-4.63L998,493l4.63.49,10.71-14.12-10.71,14.12,1.83.24c1.1-2.8,2.19-5.84,4.75-5.72l6.33-3.53a6.23,6.23,0,0,1,3.17-2.44,14.23,14.23,0,0,1,2.92-2.68l1.7-1.83-14.12-10.47h-1A38,38,0,0,1,995.77,455l-3.9-1.1,2.56,10.35-2.56-10.35-22.28-6.57,22.28,6.57-8-32.39a16.48,16.48,0,0,1-1.1-4.38l-9.13-37,9.13,37a5.9,5.9,0,0,1,0-2.07c-.49-4.14,3.29-17.29,7.91-22.16,1.95-14.37,15.1-22.28,16.32-35.31,8.4-1,6.45-13.39,14.25-16.56,3.65-7.91,9.62-13.64,12.18-22.65,4.14-4.51,4.87-17.65,14.73-17.65a34.8,34.8,0,0,0,5.11-1.46l5-8.28a17.75,17.75,0,0,1-4-2.92c-8.28,1.46-3.41-6.82-1.46-8.28,6.7-6.94,10.84-18.63,20.58-20.7l9.74-3.77c1.22-1.22,2.31-2.19,3.53-2.07a18.91,18.91,0,0,0,4.38-1l6.33-2.44c4.51-2.07,9.13-4.38,14.37-5.48l31.54-12.05c1.1-4.87,3.65-6.82,7.79-14.37a103.11,103.11,0,0,0,10.59-6.57l31.29-25.33C1129,185.7,562.8,184.48,563.77,186.07Z" transform="translate(-43.76 -4.89)"/><path class="cls-1" d="M540.64,326.09l-.12.12C540.76,326.57,540.76,326.57,540.64,326.09Z" transform="translate(-43.76 -4.89)"/><path class="cls-1" d="M505,10.13c.12-.12.24-.24.37-.24A1.51,1.51,0,0,0,505,10.13Z" transform="translate(-43.76 -4.89)"/><path class="cls-1" d="M484.63,4.89h0Z" transform="translate(-43.76 -4.89)"/><path class="cls-1" d="M448.34,38.13Z" transform="translate(-43.76 -4.89)"/><path class="cls-1" d="M1038.38,95.11,1054.45,98a68.63,68.63,0,0,1-6.45-2.92" transform="translate(-43.76 -4.89)"/><path class="cls-1" d="M1071.74,106.07a14.88,14.88,0,0,0-5.36-5.84l-7.31-1.34h0a12.43,12.43,0,0,1-4.63-.85l-16.07-2.92a4.68,4.68,0,0,0,.12,2.19c.37,5.24-2.31,4.87,1.1,8.89,1.46,5.11-5.72,1.95-9.13,2.44l59.42,9.86" transform="translate(-43.76 -4.89)"/><path class="cls-1" d="M1059.2,98.89l7.31,1.34" transform="translate(-43.76 -4.89)"/><path class="cls-1" d="M975.68,97.79a5.63,5.63,0,0,0-3.41,1.1l6.82,1.1A16.33,16.33,0,0,1,975.68,97.79Z" transform="translate(-43.76 -4.89)"/><path class="cls-1" d="M395.62,58.71l.37-.49-.55.27A2,2,0,0,0,395.62,58.71Z" transform="translate(-43.76 -4.89)"/><path class="cls-1" d="M1189.89,141.3l-98.66-8.81,98.66,8.81-2.67-4-15.15-4.6c-.37,1.46-1.7,2.31-5.72.49-5.11,6.21-8.28-3.77-14.25-3.29a7.81,7.81,0,0,0-2.56-1.7l-3.29-.49c-2.92.12-5.48,1.7-7.79,1.1-2.8,4-9.86,11.69-12.66,3.29-1.46-7.43-6.09-3.29-11.08-8.28-6.33-.12-7.67-.37-11.08,2.8-4.87.49-5.36,6.09-12.05,3.41-2.8-4.51,2.19-8.52-2.07-10a3.77,3.77,0,0,0,.73-1.58l-59.42-9.86a1.79,1.79,0,0,0-1.46.85c-5.36.85-7.31-.61-10.59-1.7-2.56,4.38-4.14,2.92-8.4,0-4.38-3.41-8.64,3.41-13.76,2.19-3.65,3.41-8.16-1.83-10-5.48-1.7-1.83-4.63-3-7.18-4.38L972.63,99c-3.29,1.95-6.94,5.36-10.35.61-2.31,4.87-3.17,4-6.33,2.19,0-4.14-3.29-5.11-6-6.45L524.69,25l-56-9.25L453.09,30.58a.32.32,0,0,0,0,.1l12.18-5.87-12.18,5.87c.23,1.15,6.19-.26,6.31-1.44.85,3.29,4.51-1.34,5.84-1.7-1.83,8.16-11,1.22-10.59,6.09,4.5,2.07,5.72,1.22,9,2.8-7.18.49.37,11-5.36,6.09.49-4.63-8.28-7.67-6.33-2.19-1.22,5.48-3.77-1.46-3.65-2.19-.73,1.1-4.75.73-7.31,4.87-5,1.1-7.67.37-13.76,2.31a3.67,3.67,0,0,1-2.92-.77l-26.87,13c.56,1.27-1.79,7.32-3.94,2.31.24,1.1-.61,1.95-1.83,2.56l15,29a11.3,11.3,0,0,0,1.58.49c1.34.24,5.84-5.84,4.75-1.1-1.34,1.1-3,2.31-4.75,3.77l6.57,12.66a11.8,11.8,0,0,0,.85-1.1c-2.56-3.65,1.7-5,2.07,0,3.65-.73,7.79-6.33,3.17,0-.24,2.56-2.31,4-3.9,5.36l24.72,48a5.18,5.18,0,0,0,1.34-.24c4.26.49,8.64-5.36,12.18-4.38-3.65,11,8.64,2.07,6.33,12.18-5.36,1-12.66,11.45-5.72,14.37-.12,3.17,1.22,4.51,3.29,4.87,3.41,0,7.43-2.56,9.38-5.36,7.18-3,4.75-5.84,6.82,2.19,4-3.29,10.59-5.48,15.83-1.7,6.33-1.7-.85,4.51,2.31,4.87a8.65,8.65,0,0,0,2.44-.49c2.19-1.58,6.7-4,8.16.37a4.38,4.38,0,0,1,.24,1.34c.37,1.22,2.31-.24,4.5-1.34a6.36,6.36,0,0,1,4-1c7.91-.49,9.5-5.72,8.4-10.47,4.51-5,8.4,6.57,13.64.61,7.18,8.64,12.42-3.53,13.76-.61.73,11.57,15.34-2.07,14.73,6.09-1.95,1.95-.73,3.65.37,5.36h-.12c1,1.58,562.88,1.83,628.76.37l18.07-14.6Z" transform="translate(-43.76 -4.89)"/><path class="cls-1" d="M1146.14,127.62l3.29.49A10.25,10.25,0,0,0,1146.14,127.62Z" transform="translate(-43.76 -4.89)"/><path class="cls-1" d="M750.06,44.95c0,.12.12.24.24.37C750.18,45.19,750.06,45.07,750.06,44.95Z" transform="translate(-43.76 -4.89)"/><path class="cls-1" d="M1048,95c-3.53,0-6.94-.12-10.47-.12l10.23,1.83A7.19,7.19,0,0,0,1048,95Z" transform="translate(-43.76 -4.89)"/><path class="cls-1" d="M1037.65,94.87q-47.67-.55-95.34-1c6,7.55,22.28,25.93,49.07,31,9.38,1.83,33.36,6.45,47.49-8.52,6.09-6.45,8.16-14.25,9-19.6Z" transform="translate(-43.76 -4.89)"/><polygon class="cls-1" points="1006.43 92.29 1050.88 137.22 1099.94 134.18 1140.98 131.62 1019.22 94.73 1006.43 92.29"/><polygon class="cls-1" points="1004.24 90.1 1006.43 92.29 1019.22 94.73 1004.24 90.1"/><polygon class="cls-1" points="421.75 21.92 409.96 25.5 377.98 40.92 380.72 42.25 417.98 40.67 424.19 26.42 421.75 21.92"/><polygon class="cls-1" points="347.13 55.79 349.19 59.78 350.89 59.78 371.35 57.84 372 43.8 347.13 55.79"/><polygon class="cls-1" points="347.12 55.77 347.13 55.79 347.15 55.78 347.12 55.77"/><polygon class="cls-1" points="347.15 55.78 347.13 55.79 408.48 177.03 415.79 184.95 532.07 183 535.11 158.77 347.15 55.78"/><polygon class="cls-1" points="443.55 382.56 494.44 389.38 480.44 449.41 443.55 382.56"/><polygon class="cls-1" points="471.92 469.98 476.91 442.95 492.98 444.9 471.92 469.98"/><polygon class="cls-1" points="463.88 514.42 445.5 615 535.23 514.42 463.88 514.42"/><polygon class="cls-1" points="537.79 610.37 459.87 603.43 445.5 615 512.83 652.99 537.79 610.37"/><polygon class="cls-1" points="512.83 652.99 521.35 685.25 546.31 678.43 514.29 651.28 512.83 652.99"/><polygon class="cls-1" points="582.96 713.74 578.82 717.76 576.14 714.72 578.21 710.94 582.96 713.74"/><polygon class="cls-1" points="628.26 684.76 608.9 687.81 619 674.05 628.26 684.76"/><polygon class="cls-1" points="608.9 687.81 588.08 708.87 595.26 688.29 608.9 687.81"/><polygon class="cls-1" points="693.64 664.67 718.6 664.07 740.27 662.36 723.59 645.44 652.97 660.53 650.42 669.54 718.6 664.07 693.64 664.67"/><polygon class="cls-1" points="792.87 628.15 650.42 637.4 650.42 669.54 813.57 664.43 814.3 663.58 792.87 628.15"/><polygon class="cls-1" points="814.3 663.58 813.57 664.43 814.79 664.43 814.3 663.58"/><polygon class="cls-1" points="862.76 597.71 737.72 616.58 814.06 663.94 824.53 650.92 862.76 597.71"/><polygon class="cls-1" points="824.53 650.92 814.06 663.94 814.79 664.43 824.53 650.92"/><polygon class="cls-1" points="906.59 570.43 906.84 571.04 906.59 570.43 906.59 570.43 905.86 569.83 904.77 571.77 905.86 569.83 892.71 560.57 851.07 570.92 862.76 597.71 898.19 585.17 915.97 577.13 906.59 570.43"/><polygon class="cls-1" points="915.97 577.13 898.19 585.17 917.67 578.35 915.97 577.13"/><polygon class="cls-1" points="929.24 523.07 868.36 529.77 905.86 569.7 906.23 569.1 904.52 563.74 906.23 569.1 913.05 556.92 929.24 523.07"/><polygon class="cls-1" points="905.86 569.7 906.59 570.43 906.59 570.43 906.23 569.1 905.86 569.7"/><polygon class="cls-1" points="906.23 569.1 906.59 570.43 913.05 556.92 906.23 569.1"/><polygon class="cls-1" points="519.16 186.9 520.74 183 529.75 183.73 545.1 212.83 533.28 237.43 516.85 240.23 514.05 238.89 519.16 186.9"/><polygon class="cls-1" points="936.67 510.89 918.16 493.61 893.69 556.67 905.86 569.7 906.23 569.1 904.52 563.74 906.23 569.1 916.7 550.47 936.67 510.89"/><polygon class="cls-1" points="929.24 497.75 936.67 510.89 955.17 493.24 949.94 484.72 929.24 497.75"/><polygon class="cls-1" points="955.17 493.12 955.17 493.24 960.53 488.74 958.58 488.61 955.17 493.12"/><polygon class="cls-1" points="953.96 488.13 955.17 493.12 958.58 488.61 953.96 488.13"/><polygon class="cls-1" points="967.23 463.77 964.18 462.19 953.35 485.69 953.96 488.13 958.58 488.61 969.3 474.49 958.58 488.61 960.53 488.74 972.34 479.12 963.33 484.11 972.34 479.12 974.66 477.17 977.7 474.49 979.28 472.66 967.23 463.77"/><polygon class="cls-1" points="979.28 472.66 977.7 474.49 979.4 472.78 979.28 472.66"/><polygon class="cls-1" points="965.16 462.19 950.43 447.95 949.21 453.18 959.56 463.65 965.4 463.9 965.16 462.19"/><path class="cls-1" d="M994.18,452.84l-5-18.63-6.7-16.92L968,429.95s18.63,33.85,18,33.24S994.18,452.84,994.18,452.84Z" transform="translate(-43.76 -4.89)"/><polygon class="cls-1" points="938.74 412.39 977.34 336.17 961.99 324 931.55 406.43 938.74 412.39"/><polygon class="cls-1" points="1021.65 258.49 1017.39 252.4 990 276.88 977.34 336.17 1006.92 298.55 1017.88 280.41 1021.65 258.49"/><polygon class="cls-1" points="1017.88 280.41 1006.92 298.55 1016.91 285.89 1017.88 280.41"/><polygon class="cls-1" points="1021.65 258.49 1099.34 227.2 1107.13 212.83 1030.91 214.17 990.97 237.18 1021.65 258.49"/><polygon class="cls-1" points="1167.15 166.81 1166.54 166.67 1166.83 167.1 1167.15 166.81"/><polygon class="cls-1" points="1166.54 166.67 1038.21 137.22 1099.34 227.2 1166.83 167.1 1166.54 166.67"/><polygon class="cls-1" points="948.72 441.49 940.68 453.43 953.71 453.18 948.72 441.49"/><polygon class="cls-1" points="938.74 412.39 957.25 454.52 931.55 453.43 929.24 412.39 938.74 412.39"/></g><polygon class="cls-1" points="34.1 688.08 26.54 687.49 37.28 715.59 37.28 715.57 34.1 688.08"/><polygon class="cls-1" points="37.28 715.57 37.28 715.59 37.29 715.62 37.28 715.57"/><polygon class="cls-1" points="44.84 697 44.92 694.74 42.96 694.16 43.69 697.36 44.84 697"/><polygon class="cls-1" points="32 678.29 42.71 680 37.5 685.28 32 678.29"/><polygon class="cls-1" points="4.26 785.21 12.56 791.14 13.12 786.07 6.27 784.3 4.26 785.21"/><polygon class="cls-1" points="21.57 775.67 21.56 775.68 21.56 775.68 21.57 775.67"/><polygon class="cls-1" points="21.56 775.68 15.76 780.29 12.56 791.14 21.56 775.68 21.56 775.68"/><polygon class="cls-1" points="14.24 773.57 8.96 779.11 14.24 779.16 14.24 773.57"/><polygon class="cls-1" points="8.96 779.11 6.57 780.1 9.25 781.64 8.96 779.11"/><polygon class="cls-1" points="6.57 780.1 2.4 778.68 2.14 780.3 6.76 781.05 6.57 780.1"/><polygon class="cls-1" points="136.78 739.26 111.67 727.95 126.99 759.45 127.38 759.35 136.78 739.26"/><polygon class="cls-1" points="110.74 726.04 110.8 726.09 114.18 725.39 110.74 726.04"/><polygon class="cls-1" points="114.18 725.39 110.8 726.09 122.68 737.84 140.79 734.19 142.8 719.2 129.04 722.61 114.18 725.39"/><polygon class="cls-1" points="117.92 724.62 119.99 728.25 144.24 729.67 142.8 719.2 117.92 724.62"/><polygon class="cls-1" points="148.52 714.14 142.8 719.2 144.24 721.96 153.12 720.85 153.32 712.59 148.52 714.14"/><polygon class="cls-1" points="160.03 710.42 160.03 711.59 167.73 711.59 168.41 707.72 160.03 710.42"/><polygon class="cls-1" points="164.02 709.69 161.41 712.12 164.44 715.4 167.68 712.35 164.44 715.4 164.46 715.41 168.97 712.33 170.86 710.88 170.47 709.31 164.02 709.69"/><polygon class="cls-1" points="168.97 712.33 170.9 711.02 170.86 710.88 168.97 712.33"/><polygon class="cls-1" points="147.25 725.86 153.39 730.89 170.9 711.02 160.84 714.82 147.25 725.86"/><polygon class="cls-1" points="206.03 746.8 204.71 746.62 196.25 760.11 209.88 764.25 210.8 753.37 206.03 746.8"/><polygon class="cls-1" points="227.39 749.83 229.76 758.76 221.71 763.87 224.19 752.71 227.39 749.83"/><polygon class="cls-1" points="318.13 746.26 318.13 750.13 338.26 740.94 331.59 735.1 318.13 746.26"/><path class="cls-1" d="M369.64,748c-.25.08-12.39,8.71-12.39,8.71l4.06.75L382,745.83S369.88,747.95,369.64,748Z" transform="translate(-43.76 -4.89)"/><polygon class="cls-1" points="318.13 744.04 304.42 750.6 303.36 752.38 315.28 751.73 318.13 744.04"/><polygon class="cls-1" points="323.17 731.76 318.13 744.04 321.85 744.74 330.98 733.68 323.17 731.76"/><polygon class="cls-1" points="377.81 658.28 377.81 648.13 365.13 656.13 368.06 662.81 377.81 658.28"/><polygon class="cls-1" points="370.19 670.42 356.37 674.7 357.95 678.99 371.65 671.75 371.84 671.53 370.19 670.42"/><polygon class="cls-1" points="354.01 676.28 353.22 669.36 350.97 669.36 349.02 676.97 350.47 677.77 354.01 676.28"/><polygon class="cls-1" points="380.61 652.16 379.85 646.51 365.13 656.13 366.15 663.3 380.61 652.16"/><polygon class="cls-1" points="365.13 656.13 355.83 661.98 361.36 664.79 366 657.9 365.13 656.13"/><path class="cls-1" d="M424.27,666.48c.24,0,.73-7.61.73-7.61h-4.35l2.17,7.76Z" transform="translate(-43.76 -4.89)"/><polygon class="cls-1" points="1063.42 476.07 1070.91 475.8 1067.34 474.41 1063.32 475.52 1063.42 476.07"/><polygon class="cls-1" points="1066.1 470.47 1072.27 475.54 1065.81 473.01 1065.34 470.47 1066.1 470.47"/><polygon class="cls-1" points="1074.59 441.48 1068.13 449.39 1064.12 448.25 1072.59 441.48 1074.59 441.48"/><polygon class="cls-1" points="1065.69 452.38 1062.27 451.99 1061.8 454.52 1062.81 454.52 1065.69 452.38"/><polygon class="cls-1" points="1052.28 446.96 1048.34 449.3 1052.28 450.33 1057.32 448.15 1053.06 446.96 1052.28 446.96"/><polygon class="cls-1" points="1059.52 456.12 1052.16 455.45 1051.69 457.88 1060.16 459.42 1060.16 459.42 1059.52 456.12"/><polygon class="cls-1" points="1060.16 459.42 1060.16 459.42 1060.17 459.42 1060.16 459.42"/><polygon class="cls-1" points="1065.69 452.38 1060.16 459.42 1059.05 454.17 1065.28 451.81 1065.69 452.38"/><polyline class="cls-1" points="1167.4 426.27 1168.41 423.47 1165.64 423.47 1164.56 425.88 1165.08 426.9"/><polygon class="cls-1" points="1167.85 350.86 1167.82 350.86 1133.23 378.31 1134.43 379.2 1170.1 357.59 1171.69 356.31 1167.85 350.86"/><polygon class="cls-1" points="1177.81 347.75 1167.85 350.86 1171.69 356.31 1179.53 349.98 1177.81 347.75"/><polygon class="cls-1" points="1173.69 361.59 1171.53 369.13 1179.53 370.85 1184.32 368.93 1175.4 361.59 1173.69 361.59"/><polygon class="cls-1" points="1188.98 365.93 1184.32 368.93 1185.84 373.74 1189.83 368.83 1188.98 365.93"/><polygon class="cls-1" points="1198.08 373.92 1193.33 385 1189.41 384.62 1191.89 374.88 1198.08 373.92"/><polygon class="cls-1" points="1187.05 397.13 1193.33 385 1183.33 385.23 1186.33 396.91 1187.05 397.13"/><polygon class="cls-1" points="1150.36 397.84 1143.17 387.8 1144.02 386.22 1153.38 387.44 1152.62 397.37 1150.36 397.84"/><polygon class="cls-1" points="1155.98 405.94 1174.48 412.23 1173.2 403.42 1159.32 401.29 1155.98 405.94"/><polygon class="cls-1" points="1128.92 392.34 1130.91 394.11 1134.05 390.67 1129.64 389.83 1128.92 392.34"/><polygon class="cls-1" points="1135.9 395.01 1143.46 388.2 1143.17 385.65 1137.48 389.83 1134.58 394.11 1135.9 395.01"/><polygon class="cls-1" points="1224.01 348.53 1249.09 355.44 1248.38 348.79 1233.28 344.94 1224.51 347.5 1224.01 348.53"/><polygon class="cls-1" points="1220.71 342.11 1221.49 343.63 1223.42 341.69 1221.49 341.23 1220.71 342.11"/><g id="Capa_2" data-name="Capa 2" class="cls-2"><g id="Capa_1-2" data-name="Capa 1-2"><path class="cls-3" d="M615.29,277.63" transform="translate(-43.76 -4.89)"/><path class="cls-4" d="M703.78,277.63c21,24.14,60,29.42,77.34,55.77,8.51,12.86,5.9,30,6.4,44.64q.67,19.67,1.75,39.32c-16.43,0-15.24-.63-24.91-14.5-12.07-17.28-27-25-43.57-37C692.91,345.74,694,307.71,703.78,277.63Z" transform="translate(-43.76 -4.89)"/><path class="cls-5" d="M794.9,384.66c-.52-17.22-.92-37.22,13.25-49.71,9.73-8.59,24.25-9.18,36.4-11.94,16-3.65,32.11-7.77,47-14.67-.54,27.69-5.9,49.49-33.7,58-20.92,6.37-42,12.28-63,18.37Z" transform="translate(-43.76 -4.89)"/><path class="cls-4" d="M615.29,277.63" transform="translate(-43.76 -4.89)"/></g></g><polygon class="cls-1" points="546.24 746.11 545.24 763.11 545.31 764.11 609.65 764.11 587.88 735.2 546.24 746.11"/><polygon class="cls-1" points="751.24 751.11 751.24 771.11 767.24 771.11 767.24 770.11 751.24 751.11"/><polygon class="cls-1" points="767.24 763.11 767.24 763.12 767.25 763.11 767.24 763.11"/><polygon class="cls-1" points="545.24 764.11 541.24 793.11 771.24 793.11 767.24 771.11 751.24 771.11 706.24 782.11 664.24 785.11 631.24 778.11 609.24 764.11 545.24 764.11"/><polygon class="cls-1" points="767.24 771.11 779.24 793.11 771.24 793.11 767.24 771.11"/><polygon class="cls-6" points="408.03 176.13 380.24 265.11 347.24 412.11 335.82 443.81 340.13 465.21 367.92 468.46 375.58 410.78 367.92 468.46 438.91 476.78 367.92 468.46 357.15 549.61 365.54 591.2 394.24 598.11 445.24 615.11 477.24 443.11 443.24 382.11 486.81 388.36 514.24 240.11 521.24 183.11 408.03 176.13"/></svg>